<svg width="197" height="168" viewBox="0 0 197 168" fill="none" xmlns="http://www.w3.org/2000/svg">
<path d="M83.0028 68.0634C81.1568 68.0634 79.3289 67.7007 77.6234 66.996C75.9179 66.2912 74.3683 65.2583 73.063 63.9561C71.7576 62.6539 70.7222 61.108 70.0158 59.4067C69.3093 57.7053 68.9457 55.8818 68.9457 54.0402C68.9457 52.1987 69.3093 50.3752 70.0158 48.6738C70.7222 46.9724 71.7576 45.4265 73.063 44.1244C74.3683 42.8222 75.9179 41.7893 77.6234 41.0845C79.3289 40.3798 81.1568 40.0171 83.0028 40.0171C86.7309 40.0171 90.3064 41.4945 92.9426 44.1244C95.5788 46.7542 97.0598 50.3211 97.0598 54.0402C97.0598 57.7594 95.5788 61.3263 92.9426 63.9561C90.3064 66.586 86.7309 68.0634 83.0028 68.0634ZM115.394 88.6952C112.08 88.6952 108.902 87.3819 106.559 85.0443C104.215 82.7066 102.899 79.5361 102.899 76.2302C102.899 72.9242 104.215 69.7537 106.559 67.416C108.902 65.0784 112.08 63.7651 115.394 63.7651C118.708 63.7651 121.886 65.0784 124.23 67.416C126.573 69.7537 127.889 72.9242 127.889 76.2302C127.889 79.5361 126.573 82.7066 124.23 85.0443C121.886 87.3819 118.708 88.6952 115.394 88.6952ZM115.394 91.8115C119.122 91.8115 122.698 93.2889 125.334 95.9187C127.97 98.5486 129.451 102.115 129.451 105.835V107.393H101.337V105.835C101.337 102.115 102.818 98.5486 105.454 95.9187C108.091 93.2889 111.666 91.8115 115.394 91.8115ZM83.0028 71.1797C85.0539 71.1797 87.0849 71.5827 88.9799 72.3657C90.8748 73.1488 92.5967 74.2965 94.047 75.7433C95.4974 77.1902 96.6478 78.9079 97.4328 80.7983C98.2177 82.6887 98.6217 84.7148 98.6217 86.761V108.618L67.3839 99.226V86.761C67.3839 82.6286 69.0294 78.6654 71.9585 75.7433C74.8876 72.8213 78.8604 71.1797 83.0028 71.1797Z" fill="#2C2C2C"/>
<path d="M193.903 58.2289C183.099 41.5198 169.08 27.3259 153.367 17.1788C135.985 5.94131 116.793 0 97.8703 0C80.5078 0 63.4352 4.9613 47.1262 14.7451C30.4946 24.7208 15.427 39.2943 2.33975 58.0574C0.862324 60.1779 0.0486466 62.6898 0.00211369 65.2738C-0.0444192 67.8579 0.678293 70.3974 2.07841 72.5697C12.8626 89.4463 26.742 103.661 42.2098 113.669C59.6254 124.951 78.3681 130.668 97.8703 130.668C116.944 130.668 136.176 124.776 153.486 113.632C169.191 103.518 183.18 89.2707 193.944 72.4227C195.296 70.3009 196.011 67.8357 196.003 65.3198C195.996 62.804 195.267 60.343 193.903 58.2289ZM98.0091 104.534C90.256 104.534 82.677 102.235 76.2306 97.9279C69.7841 93.6205 64.7597 87.4983 61.7927 80.3353C58.8257 73.1724 58.0494 65.2905 59.562 57.6864C61.0745 50.0822 64.808 43.0974 70.2903 37.6151C75.7725 32.1329 82.7574 28.3994 90.3615 26.8868C97.9657 25.3743 105.848 26.1506 113.01 29.1176C120.173 32.0845 126.296 37.109 130.603 43.5554C134.91 50.0019 137.21 57.5809 137.21 65.334C137.198 75.7269 133.064 85.6908 125.715 93.0397C118.366 100.389 108.402 104.523 98.0091 104.534Z" fill="#0816C7"/>
<path d="M28.0948 145.418V156.702H28.4848C28.8661 156.702 29.1695 156.797 29.3948 156.988C29.6201 157.178 29.7328 157.473 29.7328 157.872V159.016C29.7328 159.414 29.6201 159.709 29.3948 159.9C29.1695 160.073 28.8661 160.16 28.4848 160.16H23.5448C23.1808 160.16 22.8861 160.073 22.6608 159.9C22.4355 159.709 22.3228 159.414 22.3228 159.016V157.872C22.3228 157.473 22.4355 157.178 22.6608 156.988C22.8861 156.797 23.1808 156.702 23.5448 156.702H23.9348V145.808L20.5288 154.206C20.3035 154.726 19.9481 154.986 19.4628 154.986H18.1628C17.6428 154.986 17.2875 154.726 17.0968 154.206L13.6648 145.73V156.702H14.0808C14.4448 156.702 14.7395 156.797 14.9648 156.988C15.1901 157.178 15.3028 157.473 15.3028 157.872V159.016C15.3028 159.414 15.1901 159.709 14.9648 159.9C14.7395 160.073 14.4448 160.16 14.0808 160.16H9.79081C9.40948 160.16 9.10615 160.073 8.88081 159.9C8.65548 159.709 8.54281 159.414 8.54281 159.016V157.872C8.54281 157.473 8.65548 157.178 8.88081 156.988C9.10615 156.797 9.40948 156.702 9.79081 156.702H10.1808V145.418H9.79081C9.40948 145.418 9.10615 145.322 8.88081 145.132C8.65548 144.941 8.54281 144.646 8.54281 144.248V143.104C8.54281 142.705 8.65548 142.419 8.88081 142.246C9.10615 142.055 9.40948 141.96 9.79081 141.96H15.5368C16.0915 141.96 16.4641 142.22 16.6548 142.74L19.1768 149.136L21.7248 142.74C21.9328 142.22 22.3055 141.96 22.8428 141.96H28.4848C28.8661 141.96 29.1695 142.055 29.3948 142.246C29.6201 142.419 29.7328 142.705 29.7328 143.104V144.248C29.7328 144.646 29.6201 144.941 29.3948 145.132C29.1695 145.322 28.8661 145.418 28.4848 145.418H28.0948ZM44.8762 147.16C45.2575 147.16 45.5609 147.255 45.7862 147.446C46.0115 147.619 46.1242 147.905 46.1242 148.304V149.448C46.1242 149.846 46.0115 150.141 45.7862 150.332C45.5609 150.522 45.2575 150.618 44.8762 150.618H44.4862L39.7022 161.018C39.0782 162.404 38.4889 163.479 37.9342 164.242C37.3969 165.022 36.8422 165.576 36.2702 165.906C35.6982 166.235 35.0309 166.4 34.2682 166.4C33.3842 166.4 32.6475 166.166 32.0582 165.698C31.4862 165.23 31.2002 164.632 31.2002 163.904C31.2002 163.314 31.3995 162.829 31.7982 162.448C32.1969 162.084 32.7082 161.902 33.3322 161.902C33.7135 161.902 34.0602 161.98 34.3722 162.136C34.6842 162.309 34.9355 162.534 35.1262 162.812C35.3862 162.465 35.7329 161.832 36.1662 160.914L36.7902 159.562L32.6562 150.618H32.2662C31.8849 150.618 31.5815 150.522 31.3562 150.332C31.1309 150.141 31.0182 149.846 31.0182 149.448V148.304C31.0182 147.905 31.1309 147.619 31.3562 147.446C31.5815 147.255 31.8849 147.16 32.2662 147.16H36.6862C37.0502 147.16 37.3449 147.255 37.5702 147.446C37.7955 147.619 37.9082 147.905 37.9082 148.304V149.448C37.9082 150.124 37.6049 150.505 36.9982 150.592L38.9222 155.064L40.8202 150.618C40.0229 150.583 39.6242 150.193 39.6242 149.448V148.304C39.6242 147.905 39.7369 147.619 39.9622 147.446C40.1875 147.255 40.4909 147.16 40.8722 147.16H44.8762ZM130.42 141.96C130.802 141.96 131.105 142.055 131.33 142.246C131.556 142.419 131.668 142.705 131.668 143.104V144.248C131.668 144.646 131.556 144.941 131.33 145.132C131.105 145.322 130.802 145.418 130.42 145.418H130.03L126.364 159.25C126.295 159.527 126.139 159.752 125.896 159.926C125.654 160.082 125.385 160.16 125.09 160.16H123.062C122.75 160.16 122.473 160.082 122.23 159.926C122.005 159.752 121.849 159.527 121.762 159.25L118.824 149.968L115.886 159.25C115.8 159.527 115.635 159.752 115.392 159.926C115.15 160.082 114.872 160.16 114.56 160.16H112.506C112.212 160.16 111.943 160.082 111.7 159.926C111.458 159.752 111.302 159.527 111.232 159.25L107.566 145.418H107.176C106.812 145.418 106.518 145.322 106.292 145.132C106.067 144.941 105.954 144.646 105.954 144.248V143.104C105.954 142.705 106.067 142.419 106.292 142.246C106.518 142.055 106.812 141.96 107.176 141.96H112.194C112.558 141.96 112.853 142.055 113.078 142.246C113.304 142.419 113.416 142.705 113.416 143.104V144.248C113.416 144.646 113.304 144.941 113.078 145.132C112.853 145.322 112.558 145.418 112.194 145.418H111.804L114.066 154.31L116.874 145.496C116.961 145.218 117.108 145.002 117.316 144.846C117.524 144.672 117.767 144.586 118.044 144.586H120.358C120.618 144.586 120.852 144.672 121.06 144.846C121.268 145.002 121.416 145.218 121.502 145.496L124.284 154.206L126.52 145.418H126.13C125.749 145.418 125.446 145.322 125.22 145.132C124.995 144.941 124.882 144.646 124.882 144.248V143.104C124.882 142.705 124.995 142.419 125.22 142.246C125.446 142.055 125.749 141.96 126.13 141.96H130.42ZM143.694 156.702C144.058 156.702 144.353 156.797 144.578 156.988C144.821 157.178 144.942 157.473 144.942 157.872V159.016C144.942 159.414 144.821 159.709 144.578 159.9C144.353 160.073 144.058 160.16 143.694 160.16H140.47C140.106 160.16 139.803 160.038 139.56 159.796C139.317 159.553 139.196 159.241 139.196 158.86V157.742C138.849 158.539 138.338 159.189 137.662 159.692C136.986 160.177 136.275 160.42 135.53 160.42C134.351 160.42 133.398 160.064 132.67 159.354C131.942 158.643 131.578 157.707 131.578 156.546C131.578 155.194 132.003 154.206 132.852 153.582C133.701 152.958 135.027 152.646 136.83 152.646C137.523 152.646 138.312 152.715 139.196 152.854V151.97C139.196 151.363 139.023 150.886 138.676 150.54C138.329 150.193 137.861 150.02 137.272 150.02C136.943 150.02 136.657 150.08 136.414 150.202C136.327 150.704 136.085 151.12 135.686 151.45C135.305 151.762 134.845 151.918 134.308 151.918C133.667 151.918 133.147 151.736 132.748 151.372C132.349 150.99 132.15 150.505 132.15 149.916C132.15 148.98 132.618 148.243 133.554 147.706C134.49 147.168 135.712 146.9 137.22 146.9C139.231 146.9 140.747 147.402 141.77 148.408C142.793 149.396 143.304 150.8 143.304 152.62V156.702H143.694ZM136.856 157.482C137.445 157.482 137.957 157.23 138.39 156.728C138.841 156.208 139.101 155.584 139.17 154.856C138.546 154.786 137.974 154.752 137.454 154.752C136.813 154.752 136.353 154.873 136.076 155.116C135.816 155.341 135.686 155.731 135.686 156.286C135.686 156.632 135.799 156.918 136.024 157.144C136.249 157.369 136.527 157.482 136.856 157.482ZM155.692 155.532C156.142 155.532 156.532 155.679 156.862 155.974C157.191 156.251 157.356 156.598 157.356 157.014C157.356 157.499 157.208 157.941 156.914 158.34C155.908 159.726 154.608 160.42 153.014 160.42C149.599 160.42 147.892 158.53 147.892 154.752V150.54H146.982C146.618 150.54 146.314 150.418 146.072 150.176C145.829 149.933 145.708 149.621 145.708 149.24V148.434C145.708 148.07 145.829 147.766 146.072 147.524C146.314 147.281 146.618 147.16 146.982 147.16H147.892V144.872C147.892 144.49 148.013 144.178 148.256 143.936C148.498 143.693 148.81 143.572 149.192 143.572H150.726C151.09 143.572 151.393 143.693 151.636 143.936C151.878 144.178 152 144.49 152 144.872V147.16H154.626C155.007 147.16 155.319 147.281 155.562 147.524C155.804 147.766 155.926 148.07 155.926 148.434V149.24C155.926 149.621 155.804 149.933 155.562 150.176C155.319 150.418 155.007 150.54 154.626 150.54H152V155.402C152 155.904 152.104 156.303 152.312 156.598C152.537 156.892 152.84 157.04 153.222 157.04C153.516 157.04 153.759 156.979 153.95 156.858C154.14 156.719 154.34 156.494 154.548 156.182C154.721 155.956 154.886 155.792 155.042 155.688C155.215 155.584 155.432 155.532 155.692 155.532ZM169.091 155.662C169.524 155.662 169.888 155.783 170.183 156.026C170.495 156.251 170.651 156.589 170.651 157.04C170.651 157.542 170.495 157.993 170.183 158.392C169.749 158.981 169.151 159.466 168.389 159.848C167.626 160.229 166.716 160.42 165.659 160.42C164.255 160.42 163.041 160.142 162.019 159.588C160.996 159.016 160.216 158.218 159.679 157.196C159.141 156.156 158.873 154.96 158.873 153.608C158.873 152.238 159.15 151.051 159.705 150.046C160.277 149.023 161.057 148.243 162.045 147.706C163.05 147.168 164.194 146.9 165.477 146.9C166.499 146.9 167.427 147.082 168.259 147.446C169.091 147.81 169.741 148.312 170.209 148.954C170.694 149.595 170.937 150.306 170.937 151.086C170.937 151.779 170.711 152.342 170.261 152.776C169.81 153.192 169.221 153.4 168.493 153.4C167.747 153.4 167.149 153.2 166.699 152.802C166.248 152.386 166.023 151.848 166.023 151.19C166.023 150.947 166.049 150.713 166.101 150.488C165.858 150.349 165.572 150.28 165.243 150.28C164.515 150.28 163.969 150.557 163.605 151.112C163.241 151.666 163.059 152.481 163.059 153.556C163.059 154.613 163.301 155.462 163.787 156.104C164.289 156.728 164.983 157.04 165.867 157.04C166.335 157.04 166.707 156.979 166.985 156.858C167.262 156.719 167.565 156.502 167.895 156.208C168.293 155.844 168.692 155.662 169.091 155.662ZM186.954 156.702C187.318 156.702 187.613 156.797 187.838 156.988C188.064 157.178 188.176 157.473 188.176 157.872V159.016C188.176 159.414 188.064 159.709 187.838 159.9C187.613 160.073 187.318 160.16 186.954 160.16H182.066C181.685 160.16 181.382 160.073 181.156 159.9C180.931 159.709 180.818 159.414 180.818 159.016V157.872C180.818 157.473 180.931 157.178 181.156 156.988C181.382 156.797 181.685 156.702 182.066 156.702H182.456V153.296C182.456 152.169 182.335 151.389 182.092 150.956C181.867 150.505 181.451 150.28 180.844 150.28C180.168 150.28 179.579 150.583 179.076 151.19C178.574 151.779 178.322 152.472 178.322 153.27V156.702H178.712C179.076 156.702 179.371 156.797 179.596 156.988C179.822 157.178 179.934 157.473 179.934 157.872V159.016C179.934 159.414 179.822 159.709 179.596 159.9C179.371 160.073 179.076 160.16 178.712 160.16H173.824C173.443 160.16 173.14 160.073 172.914 159.9C172.689 159.709 172.576 159.414 172.576 159.016V157.872C172.576 157.473 172.689 157.178 172.914 156.988C173.14 156.797 173.443 156.702 173.824 156.702H174.214V144.378H173.824C173.443 144.378 173.14 144.282 172.914 144.092C172.689 143.901 172.576 143.606 172.576 143.208V142.064C172.576 141.665 172.689 141.379 172.914 141.206C173.14 141.015 173.443 140.92 173.824 140.92H177.022C177.386 140.92 177.69 141.041 177.932 141.284C178.192 141.526 178.322 141.838 178.322 142.22V149.578C178.669 148.798 179.189 148.156 179.882 147.654C180.576 147.151 181.295 146.9 182.04 146.9C183.462 146.9 184.571 147.35 185.368 148.252C186.166 149.153 186.564 150.418 186.564 152.048V156.702H186.954Z" fill="#2C2C2C"/>
<path d="M64.0183 156.702C64.3823 156.702 64.6769 156.797 64.9023 156.988C65.1276 157.178 65.2403 157.473 65.2403 157.872V159.016C65.2403 159.414 65.1276 159.709 64.9023 159.9C64.6769 160.073 64.3823 160.16 64.0183 160.16H58.2203C57.8389 160.16 57.5356 160.073 57.3103 159.9C57.0849 159.709 56.9723 159.414 56.9723 159.016V157.872C56.9723 157.144 57.3363 156.754 58.0643 156.702L53.6963 151.736V156.702H54.0863C54.4503 156.702 54.7449 156.797 54.9703 156.988C55.1956 157.178 55.3083 157.473 55.3083 157.872V159.016C55.3083 159.414 55.1956 159.709 54.9703 159.9C54.7449 160.073 54.4503 160.16 54.0863 160.16H49.1463C48.7649 160.16 48.4616 160.073 48.2363 159.9C48.0109 159.709 47.8983 159.414 47.8983 159.016V157.872C47.8983 157.473 48.0109 157.178 48.2363 156.988C48.4616 156.797 48.7649 156.702 49.1463 156.702H49.5363V145.418H49.1463C48.7649 145.418 48.4616 145.322 48.2363 145.132C48.0109 144.941 47.8983 144.646 47.8983 144.248V143.104C47.8983 142.705 48.0109 142.419 48.2363 142.246C48.4616 142.055 48.7649 141.96 49.1463 141.96H54.0863C54.4503 141.96 54.7449 142.055 54.9703 142.246C55.1956 142.419 55.3083 142.705 55.3083 143.104V144.248C55.3083 144.646 55.1956 144.941 54.9703 145.132C54.7449 145.322 54.4503 145.418 54.0863 145.418H53.6963V150.254L58.4023 145.418H58.1423C57.7783 145.418 57.4749 145.322 57.2323 145.132C57.0069 144.941 56.8943 144.646 56.8943 144.248V143.104C56.8943 142.67 56.9463 142.376 57.0503 142.22C57.1716 142.046 57.3969 141.96 57.7263 141.96H63.7583C64.1396 141.96 64.4429 142.055 64.6683 142.246C64.8936 142.419 65.0063 142.705 65.0063 143.104V144.248C65.0063 144.646 64.8936 144.941 64.6683 145.132C64.4429 145.322 64.1396 145.418 63.7583 145.418H63.0823L57.7783 150.566L63.4203 156.702H64.0183ZM70.6676 145.288C69.9396 145.288 69.3242 145.045 68.8216 144.56C68.3362 144.057 68.0936 143.442 68.0936 142.714C68.0936 141.986 68.3362 141.379 68.8216 140.894C69.3242 140.391 69.9396 140.14 70.6676 140.14C71.3956 140.14 72.0022 140.391 72.4876 140.894C72.9902 141.379 73.2416 141.986 73.2416 142.714C73.2416 143.442 72.9902 144.057 72.4876 144.56C72.0022 145.045 71.3956 145.288 70.6676 145.288ZM68.6916 160.16C68.3276 160.16 68.0329 160.073 67.8076 159.9C67.5822 159.709 67.4696 159.414 67.4696 159.016V157.872C67.4696 157.473 67.5822 157.178 67.8076 156.988C68.0329 156.797 68.3276 156.702 68.6916 156.702H69.0816V150.618H68.6916C68.3276 150.618 68.0329 150.522 67.8076 150.332C67.5822 150.141 67.4696 149.846 67.4696 149.448V148.304C67.4696 147.905 67.5822 147.619 67.8076 147.446C68.0329 147.255 68.3276 147.16 68.6916 147.16H71.9156C72.2796 147.16 72.5829 147.281 72.8256 147.524C73.0682 147.766 73.1896 148.078 73.1896 148.46V156.702H73.5796C73.9609 156.702 74.2642 156.797 74.4896 156.988C74.7149 157.178 74.8276 157.473 74.8276 157.872V159.016C74.8276 159.414 74.7149 159.709 74.4896 159.9C74.2642 160.073 73.9609 160.16 73.5796 160.16H68.6916ZM90.0528 156.702C90.4341 156.702 90.7375 156.797 90.9628 156.988C91.1881 157.178 91.3008 157.473 91.3008 157.872V159.016C91.3008 159.414 91.1881 159.709 90.9628 159.9C90.7375 160.073 90.4341 160.16 90.0528 160.16H86.8548C86.4735 160.16 86.1615 160.038 85.9188 159.796C85.6761 159.553 85.5548 159.241 85.5548 158.86V157.82C85.2255 158.6 84.6968 159.232 83.9688 159.718C83.2581 160.186 82.4695 160.42 81.6028 160.42C80.0601 160.42 78.8295 159.848 77.9108 158.704C77.0095 157.542 76.5588 155.965 76.5588 153.972C76.5588 151.718 77.0701 149.976 78.0928 148.746C79.1155 147.515 80.5628 146.9 82.4348 146.9C83.7175 146.9 84.7575 147.35 85.5548 148.252V144.378H85.1648C84.7835 144.378 84.4801 144.282 84.2548 144.092C84.0295 143.901 83.9168 143.606 83.9168 143.208V142.064C83.9168 141.665 84.0295 141.379 84.2548 141.206C84.4801 141.015 84.7835 140.92 85.1648 140.92H88.3888C88.7528 140.92 89.0561 141.041 89.2988 141.284C89.5415 141.526 89.6628 141.838 89.6628 142.22V156.702H90.0528ZM82.9548 157.04C83.6828 157.04 84.2981 156.702 84.8008 156.026C85.3035 155.35 85.5548 154.518 85.5548 153.53V151.268C85.2601 150.956 84.8961 150.713 84.4628 150.54C84.0295 150.366 83.5788 150.28 83.1108 150.28C82.3655 150.28 81.7848 150.592 81.3688 151.216C80.9528 151.84 80.7448 152.715 80.7448 153.842C80.7448 154.864 80.9355 155.653 81.3168 156.208C81.7155 156.762 82.2615 157.04 82.9548 157.04ZM99.4587 151.918C100.62 152.247 101.53 152.602 102.189 152.984C102.847 153.348 103.324 153.79 103.619 154.31C103.913 154.812 104.061 155.436 104.061 156.182C104.061 156.996 103.818 157.733 103.333 158.392C102.865 159.033 102.206 159.536 101.357 159.9C100.507 160.246 99.5454 160.42 98.4707 160.42C96.7894 160.42 95.4547 160.16 94.4667 159.64C93.4961 159.12 93.0107 158.426 93.0107 157.56C93.0107 156.97 93.2101 156.494 93.6087 156.13C94.0074 155.748 94.5274 155.558 95.1687 155.558C95.7754 155.558 96.2867 155.766 96.7027 156.182C97.1187 156.58 97.3267 157.083 97.3267 157.69C97.5694 157.811 97.9161 157.872 98.3667 157.872C98.8694 157.872 99.2594 157.785 99.5367 157.612C99.8141 157.438 99.9527 157.187 99.9527 156.858C99.9527 156.511 99.8401 156.251 99.6147 156.078C99.4067 155.904 98.9734 155.722 98.3147 155.532C97.0494 155.168 96.0441 154.786 95.2987 154.388C94.5707 153.989 94.0421 153.521 93.7127 152.984C93.3834 152.446 93.2187 151.796 93.2187 151.034C93.2187 150.219 93.4527 149.5 93.9207 148.876C94.3887 148.234 95.0474 147.749 95.8967 147.42C96.7461 147.073 97.7167 146.9 98.8087 146.9C100.351 146.9 101.582 147.151 102.501 147.654C103.437 148.156 103.905 148.824 103.905 149.656C103.905 150.262 103.705 150.756 103.307 151.138C102.908 151.502 102.388 151.684 101.747 151.684C101.157 151.684 100.655 151.493 100.239 151.112C99.8401 150.713 99.6234 150.219 99.5887 149.63C99.3634 149.508 99.0774 149.448 98.7307 149.448C98.2974 149.448 97.9594 149.543 97.7167 149.734C97.4741 149.924 97.3527 150.184 97.3527 150.514C97.3527 150.826 97.4914 151.077 97.7687 151.268C98.0634 151.458 98.6267 151.675 99.4587 151.918Z" fill="#0816C7"/>
</svg>
