<svg width="4" height="18" viewBox="0 0 4 18" fill="none" xmlns="http://www.w3.org/2000/svg">
<path d="M1.75 2.87688C2.16421 2.87688 2.5 2.45672 2.5 1.93844C2.5 1.42015 2.16421 1 1.75 1C1.33579 1 1 1.42015 1 1.93844C1 2.45672 1.33579 2.87688 1.75 2.87688Z" stroke="#111111" stroke-width="1.5" stroke-linecap="round" stroke-linejoin="round"/>
<path d="M1.75 9.75871C2.16421 9.75871 2.5 9.33856 2.5 8.82027C2.5 8.30199 2.16421 7.88184 1.75 7.88184C1.33579 7.88184 1 8.30199 1 8.82027C1 9.33856 1.33579 9.75871 1.75 9.75871Z" stroke="#111111" stroke-width="1.5" stroke-linecap="round" stroke-linejoin="round"/>
<path d="M1.75 16.6405C2.16421 16.6405 2.5 16.2204 2.5 15.7021C2.5 15.1838 2.16421 14.7637 1.75 14.7637C1.33579 14.7637 1 15.1838 1 15.7021C1 16.2204 1.33579 16.6405 1.75 16.6405Z" stroke="#111111" stroke-width="1.5" stroke-linecap="round" stroke-linejoin="round"/>
</svg>
