<svg width="38" height="30" viewBox="0 0 38 30" fill="none" xmlns="http://www.w3.org/2000/svg">
<path d="M2.8125 0L6.28125 7.125H12.375L8.90625 0H13.0781L16.5469 7.125H22.6406L19.1719 0H23.3438L26.8125 7.125H32.9062L29.4375 0H34.6875C35.4375 0 36.0938 0.28125 36.6562 0.84375C37.2188 1.40625 37.5 2.0625 37.5 2.8125V27.1875C37.5 27.9375 37.2188 28.5938 36.6562 29.1562C36.0938 29.7188 35.4375 30 34.6875 30H2.8125C2.0625 30 1.40625 29.7188 0.84375 29.1562C0.28125 28.5938 0 27.9375 0 27.1875V2.8125C0 2.0625 0.28125 1.40625 0.84375 0.84375C1.40625 0.28125 2.0625 0 2.8125 0ZM2.8125 9.9375V27.1875H34.6875V9.9375H2.8125Z" fill="black"/>
</svg>
