<svg width="23" height="21" viewBox="0 0 23 21" fill="none" xmlns="http://www.w3.org/2000/svg">
<path fill-rule="evenodd" clip-rule="evenodd" d="M11.5 0.359375C11.7013 0.359246 11.8986 0.415458 12.0695 0.52165C12.2405 0.627843 12.3784 0.779775 12.4675 0.96025L15.1728 6.44431L21.2247 7.32406C21.4238 7.35297 21.6107 7.43698 21.7645 7.5666C21.9183 7.6962 22.0327 7.86626 22.095 8.05752C22.1572 8.24879 22.1647 8.45365 22.1165 8.64893C22.0684 8.84422 21.9666 9.02215 21.8227 9.16263L17.4441 13.432L18.4776 19.458C18.5117 19.6562 18.4897 19.8601 18.414 20.0465C18.3382 20.233 18.2118 20.3944 18.0491 20.5127C17.8864 20.631 17.6938 20.7014 17.4931 20.716C17.2924 20.7305 17.0917 20.6886 16.9136 20.5951L11.5 17.7488L6.08639 20.5951C5.9084 20.6885 5.70784 20.7303 5.50735 20.7158C5.30685 20.7013 5.11441 20.631 4.95174 20.513C4.78907 20.3948 4.66267 20.2335 4.5868 20.0474C4.51093 19.8612 4.48862 19.6577 4.52239 19.4594L5.55739 13.4306L1.17588 9.16263C1.03151 9.02221 0.929351 8.84418 0.880982 8.64868C0.832614 8.45318 0.83997 8.24804 0.902218 8.05651C0.964466 7.86498 1.07912 7.69471 1.23317 7.565C1.38724 7.4353 1.57455 7.35133 1.77389 7.32262L7.82576 6.44431L10.5326 0.96025C10.6217 0.779775 10.7595 0.627843 10.9305 0.52165C11.1015 0.415458 11.2987 0.359246 11.5 0.359375Z" fill="#FFBA08"/>
</svg>
