<svg width="35" height="35" viewBox="0 0 35 35" fill="none" xmlns="http://www.w3.org/2000/svg">
<g clip-path="url(#clip0_415_270)">
<g filter="url(#filter0_d_415_270)">
<path fill-rule="evenodd" clip-rule="evenodd" d="M17.5 0.546875C17.8063 0.546678 18.1065 0.632218 18.3667 0.793816C18.6269 0.955413 18.8366 1.18661 18.9722 1.46125L23.0891 9.80656L32.2985 11.1453C32.6014 11.1893 32.8858 11.3171 33.1199 11.5144C33.3539 11.7116 33.528 11.9704 33.6228 12.2614C33.7175 12.5525 33.7289 12.8643 33.6556 13.1614C33.5823 13.4586 33.4274 13.7294 33.2085 13.9431L26.5453 20.44L28.1181 29.61C28.17 29.9117 28.1365 30.2218 28.0212 30.5056C27.906 30.7893 27.7137 31.0349 27.466 31.215C27.2184 31.395 26.9253 31.5022 26.6199 31.5243C26.3145 31.5464 26.0092 31.4827 25.7381 31.3403L17.5 27.0091L9.26189 31.3403C8.99103 31.4825 8.68583 31.5462 8.38074 31.5241C8.07563 31.502 7.78279 31.395 7.53525 31.2154C7.28772 31.0356 7.09537 30.7902 6.97991 30.5069C6.86446 30.2236 6.83051 29.9138 6.88189 29.6122L8.45689 20.4378L1.78938 13.9431C1.56969 13.7295 1.41423 13.4585 1.34062 13.161C1.26702 12.8635 1.27821 12.5514 1.37294 12.2599C1.46766 11.9684 1.64213 11.7093 1.87657 11.512C2.11101 11.3146 2.39605 11.1868 2.69939 11.1431L11.9088 9.80656L16.0278 1.46125C16.1634 1.18661 16.3731 0.955413 16.6333 0.793816C16.8935 0.632218 17.1937 0.546678 17.5 0.546875Z" fill="#FFBA08"/>
</g>
</g>
<defs>
<filter id="filter0_d_415_270" x="0.292603" y="-1.45312" width="36.4106" height="34.9817" filterUnits="userSpaceOnUse" color-interpolation-filters="sRGB">
<feFlood flood-opacity="0" result="BackgroundImageFix"/>
<feColorMatrix in="SourceAlpha" type="matrix" values="0 0 0 0 0 0 0 0 0 0 0 0 0 0 0 0 0 0 127 0" result="hardAlpha"/>
<feOffset dx="1"/>
<feGaussianBlur stdDeviation="1"/>
<feComposite in2="hardAlpha" operator="out"/>
<feColorMatrix type="matrix" values="0 0 0 0 0.545833 0 0 0 0 0.393354 0 0 0 0 0 0 0 0 1 0"/>
<feBlend mode="normal" in2="BackgroundImageFix" result="effect1_dropShadow_415_270"/>
<feBlend mode="normal" in="SourceGraphic" in2="effect1_dropShadow_415_270" result="shape"/>
</filter>
<clipPath id="clip0_415_270">
<rect width="35" height="35" fill="white"/>
</clipPath>
</defs>
</svg>
