<svg width="34" height="30" viewBox="0 0 34 30" fill="none" xmlns="http://www.w3.org/2000/svg">
<path d="M12.625 20.4167L23.75 13.3333L12.625 6.25V20.4167ZM10.4167 30V26.6667H2.5C1.83333 26.6667 1.25 26.4167 0.75 25.9167C0.25 25.4167 0 24.8333 0 24.1667V2.5C0 1.83333 0.25 1.25 0.75 0.75C1.25 0.25 1.83333 0 2.5 0H30.8333C31.5 0 32.0833 0.25 32.5833 0.75C33.0833 1.25 33.3333 1.83333 33.3333 2.5V24.1667C33.3333 24.8333 33.0833 25.4167 32.5833 25.9167C32.0833 26.4167 31.5 26.6667 30.8333 26.6667H22.9167V30H10.4167ZM2.5 24.1667H30.8333V2.5H2.5V24.1667Z" fill="#2C2C2C"/>
</svg>
